<svg xmlns="http://www.w3.org/2000/svg" viewBox="0 0 200 38.68"><defs><style>.cls-1{fill:#f8bb2c;}.cls-2{fill:#231815;}</style></defs><g id="Layer_2" data-name="Layer 2"><g id="design"><polygon class="cls-1" points="9.82 0 9.82 37.45 0 18.73 9.82 0"/><polygon class="cls-2" points="39.6 38.68 39.6 1.23 49.42 19.95 39.6 38.68"/><polygon class="cls-1" points="17.19 0 17.19 15.35 31.62 15.35 17.19 0"/><polygon class="cls-2" points="17.19 24.86 32.84 24.86 32.84 37.45 17.19 24.86"/><path class="cls-2" d="M64,2.39h2.1l8,18.78h-2.6l-1.91-4.62H60.22l-1.93,4.62H55.77Zm1,2.86h0l-3.9,9.23h7.66Z"/><path class="cls-2" d="M76.19,2.39H83.4a9.94,9.94,0,0,1,2,.21,9.87,9.87,0,0,1,4,1.88A8.08,8.08,0,0,1,91,6.27a8.86,8.86,0,0,1,1.14,2.42,10.17,10.17,0,0,1,.43,3.09,10.17,10.17,0,0,1-.43,3.09A8.8,8.8,0,0,1,91,17.28a8.08,8.08,0,0,1-1.65,1.79,10,10,0,0,1-2,1.21,9.44,9.44,0,0,1-2,.67,10,10,0,0,1-2,.22H76.19ZM78.42,19.1h4.24a9.93,9.93,0,0,0,3-.43,6.47,6.47,0,0,0,2.39-1.31,6.19,6.19,0,0,0,1.59-2.27,8.45,8.45,0,0,0,.58-3.31,8.5,8.5,0,0,0-.58-3.32,6.27,6.27,0,0,0-1.59-2.27,6.47,6.47,0,0,0-2.39-1.31,10.26,10.26,0,0,0-3-.42H78.42Z"/><path class="cls-2" d="M96.11,2.39h3.32l6.36,14.72h0l6.42-14.72h3.24V21.17h-2.23V5.41h0l-6.74,15.76h-1.35L98.39,5.41h0V21.17H96.11Z"/><path class="cls-2" d="M126.19,2.39h2.09l8,18.78h-2.6l-1.91-4.62h-9.39l-1.94,4.62h-2.52Zm1,2.86h0l-3.9,9.23h7.67Z"/><path class="cls-2" d="M138.68,2.39h4.8a22,22,0,0,1,2.69.16,7,7,0,0,1,2.4.69,4.37,4.37,0,0,1,1.73,1.55A5,5,0,0,1,151,7.56a4.57,4.57,0,0,1-1.25,3.34,6,6,0,0,1-3.45,1.62l5.34,8.65h-2.74l-5.09-8.44h-2.86v8.44h-2.23Zm2.23,8.27h2c.61,0,1.26,0,1.92-.05a6.61,6.61,0,0,0,1.83-.35A3.15,3.15,0,0,0,148,9.35a2.66,2.66,0,0,0,.54-1.79,2.9,2.9,0,0,0-.4-1.62,2.62,2.62,0,0,0-1-.94,4.52,4.52,0,0,0-1.46-.44,12.74,12.74,0,0,0-1.63-.1h-3.13Z"/><path class="cls-2" d="M154.8,2.39H157V10.5h.32l8.54-8.11h3.21L159.82,11l9.73,10.22h-3.26l-8.94-9.55H157v9.55H154.8Z"/><path class="cls-2" d="M171.43,2.39h11.81V4.46h-9.58v5.88h8.94v2.07h-8.94V19.1h10.05v2.07H171.43Z"/><path class="cls-2" d="M187.08,2.39h4.8a22.11,22.11,0,0,1,2.7.16,7,7,0,0,1,2.4.69,4.34,4.34,0,0,1,1.72,1.55,5,5,0,0,1,.66,2.77,4.57,4.57,0,0,1-1.24,3.34,6,6,0,0,1-3.45,1.62L200,21.17h-2.73l-5.09-8.44h-2.87v8.44h-2.23Zm2.23,8.27h2c.62,0,1.26,0,1.92-.05a6.47,6.47,0,0,0,1.83-.35,3.15,3.15,0,0,0,1.38-.91A2.66,2.66,0,0,0,197,7.56a3,3,0,0,0-.4-1.62A2.71,2.71,0,0,0,195.53,5a4.45,4.45,0,0,0-1.46-.44,12.63,12.63,0,0,0-1.63-.1h-3.13Z"/></g></g></svg>