<svg xmlns="http://www.w3.org/2000/svg" viewBox="0 0 375.61 233.11"><defs><style>.cls-1{isolation:isolate;}.cls-2{mix-blend-mode:luminosity;}.cls-3{opacity:0.6;}.cls-4{fill:#f8bb2c;}</style></defs><g class="cls-1"><g id="Layer_2" data-name="Layer 2"><g id="design"><g class="cls-2"><g class="cls-3"><path class="cls-4" d="M27.71,17.74H11.47V10H53.05v7.7H36.81V59h-9.1Z"/><path class="cls-4" d="M105.62,25.37q4.26,4.13,4.27,12.25V59h-8.75V38.74q0-4.91-2.31-7.39a8.56,8.56,0,0,0-6.58-2.48,10.11,10.11,0,0,0-7.63,2.9q-2.81,2.91-2.8,8.37V59H73.07V7.1h8.75V26a14.32,14.32,0,0,1,5.35-3.54,19.86,19.86,0,0,1,7.11-1.22Q101.35,21.24,105.62,25.37Z"/><path class="cls-4" d="M135.44,14a4.92,4.92,0,0,1-1.61-3.75,4.92,4.92,0,0,1,1.61-3.75,5.62,5.62,0,0,1,4-1.5,5.79,5.79,0,0,1,4,1.44A4.61,4.61,0,0,1,145,10a5.26,5.26,0,0,1-1.58,3.88,5.41,5.41,0,0,1-4,1.58A5.62,5.62,0,0,1,135.44,14ZM135,21.66h8.75V59H135Z"/><path class="cls-4" d="M201.8,25.37q4.26,4.13,4.27,12.25V59h-8.75V38.74q0-4.91-2.31-7.39a8.57,8.57,0,0,0-6.58-2.48,10.11,10.11,0,0,0-7.63,2.9Q178,34.68,178,40.14V59h-8.75V21.66h8.33v4.83A13.59,13.59,0,0,1,183,22.57a19.55,19.55,0,0,1,7.42-1.33Q197.52,21.24,201.8,25.37Z"/><path class="cls-4" d="M246.46,43,240,49.17V59H231.2V7.1H240V38.46l18.13-16.8h10.5L253,37.34,270.05,59H259.41Z"/><path class="cls-4" d="M51.93,101.66l-17.5,40.39q-2.45,6.09-5.95,8.58A14.29,14.29,0,0,1,20,153.11a17.28,17.28,0,0,1-5.53-.91A12.34,12.34,0,0,1,10,149.68l3.5-6.44a9.59,9.59,0,0,0,3,1.89,9,9,0,0,0,3.46.7,6,6,0,0,0,3.81-1.19,10.4,10.4,0,0,0,2.77-4l.63-1.47L10.84,101.66h9.1L31.7,129.31l11.83-27.65Z"/><path class="cls-4" d="M78,137.08a17.91,17.91,0,0,1-7.11-6.83,20.43,20.43,0,0,1,0-19.77A18,18,0,0,1,78,103.69a22.69,22.69,0,0,1,20.51,0,17.92,17.92,0,0,1,7.1,6.79,20.36,20.36,0,0,1,0,19.77,17.82,17.82,0,0,1-7.1,6.83,22.69,22.69,0,0,1-20.51,0Zm18.2-8.26a13,13,0,0,0,0-16.94,11.46,11.46,0,0,0-15.93,0,13.09,13.09,0,0,0,0,16.94,11.46,11.46,0,0,0,15.93,0Z"/><path class="cls-4" d="M166.73,101.66V139H158.4v-4.76a14,14,0,0,1-5.25,3.89,16.91,16.91,0,0,1-6.79,1.36q-7.5,0-11.8-4.16T130.26,123V101.66H139v20.16q0,5,2.27,7.53a8.37,8.37,0,0,0,6.48,2.48,9.79,9.79,0,0,0,7.45-2.91Q158,126,158,120.56v-18.9Z"/><path class="cls-4" d="M213.84,101.24v8.33a11.2,11.2,0,0,0-2-.21q-5.12,0-8,3c-1.92,2-2.87,4.85-2.87,8.58V139h-8.75V101.66h8.33v5.46Q204.32,101.24,213.84,101.24Z"/><path class="cls-4" d="M54,181.66v31.71q0,19.74-20.16,19.74a37.43,37.43,0,0,1-10.22-1.36,21.79,21.79,0,0,1-8-4l3.92-6.58a18.62,18.62,0,0,0,6.2,3.25,24.12,24.12,0,0,0,7.59,1.23q6.16,0,9-2.8c1.91-1.87,2.87-4.71,2.87-8.54v-2a14.37,14.37,0,0,1-5.46,3.71,19.24,19.24,0,0,1-7.07,1.26,20.21,20.21,0,0,1-9.62-2.28,17,17,0,0,1-6.8-6.4,19.19,19.19,0,0,1,0-18.87,16.87,16.87,0,0,1,6.8-6.33,20.55,20.55,0,0,1,9.62-2.24,19.59,19.59,0,0,1,7.38,1.33,13.62,13.62,0,0,1,5.57,4.06v-5ZM42.23,207a10.07,10.07,0,0,0,3.19-7.73,9.88,9.88,0,0,0-3.19-7.63,11.54,11.54,0,0,0-8.15-2.94,11.67,11.67,0,0,0-8.23,2.94,9.91,9.91,0,0,0-3.18,7.63A10.1,10.1,0,0,0,25.85,207a11.56,11.56,0,0,0,8.23,3A11.43,11.43,0,0,0,42.23,207Z"/><path class="cls-4" d="M101.14,181.24v8.33a11.2,11.2,0,0,0-2-.21q-5.11,0-8,3c-1.92,2-2.87,4.85-2.87,8.58V219H79.51V181.66h8.33v5.46Q91.62,181.24,101.14,181.24Z"/><path class="cls-4" d="M129.49,217.08a17.91,17.91,0,0,1-7.11-6.83,20.43,20.43,0,0,1,0-19.77,18,18,0,0,1,7.11-6.79,22.69,22.69,0,0,1,20.51,0,17.92,17.92,0,0,1,7.1,6.79,20.36,20.36,0,0,1,0,19.77,17.82,17.82,0,0,1-7.1,6.83,22.69,22.69,0,0,1-20.51,0Zm18.2-8.26a13,13,0,0,0,0-16.94,11.46,11.46,0,0,0-15.93,0,13.09,13.09,0,0,0,0,16.94,11.46,11.46,0,0,0,15.93,0Z"/><path class="cls-4" d="M240.37,181.66,226.58,219h-8.4l-9.66-25.76L198.72,219h-8.4L176.6,181.66h8.26l9.87,27.58L205,181.66h7.35l10.08,27.72,10.15-27.72Z"/><path class="cls-4" d="M282.86,217a10.35,10.35,0,0,1-3.75,1.89,16.85,16.85,0,0,1-4.65.63q-6.16,0-9.52-3.22t-3.36-9.38v-18h-6.16v-7h6.16V173.4h8.75v8.54h10v7h-10v17.78a5.92,5.92,0,0,0,1.33,4.17,5,5,0,0,0,3.85,1.43,7.67,7.67,0,0,0,4.9-1.54Z"/><path class="cls-4" d="M336.62,185.37q4.26,4.13,4.27,12.25V219h-8.75v-20.3q0-4.91-2.31-7.39a8.57,8.57,0,0,0-6.58-2.48,10.11,10.11,0,0,0-7.63,2.9q-2.81,2.91-2.8,8.37V219h-8.75V167.1h8.75V186a14.24,14.24,0,0,1,5.35-3.54,19.83,19.83,0,0,1,7.11-1.22Q332.35,181.24,336.62,185.37Z"/><path class="cls-4" d="M366,218a5.21,5.21,0,0,1-1.61-3.89,5.09,5.09,0,0,1,1.61-3.85,5.61,5.61,0,0,1,4.06-1.54,5.41,5.41,0,0,1,3.95,1.54,5.17,5.17,0,0,1,1.58,3.85A5.29,5.29,0,0,1,374,218a5.4,5.4,0,0,1-3.95,1.57A5.59,5.59,0,0,1,366,218ZM364.9,170h10.36l-1.75,32.76h-6.93Z"/></g><path d="M17.71,12.74H1.47V5H43.05v7.7H26.81V54h-9.1Z"/><path d="M95.62,20.37q4.26,4.13,4.27,12.25V54H91.14V33.74q0-4.91-2.31-7.39a8.56,8.56,0,0,0-6.58-2.48,10.11,10.11,0,0,0-7.63,2.9q-2.81,2.91-2.8,8.37V54H63.07V2.1h8.75V21a14.32,14.32,0,0,1,5.35-3.54,19.86,19.86,0,0,1,7.11-1.22Q91.35,16.24,95.62,20.37Z"/><path d="M125.44,9a4.92,4.92,0,0,1-1.61-3.75,4.92,4.92,0,0,1,1.61-3.75,5.62,5.62,0,0,1,4-1.5,5.79,5.79,0,0,1,4,1.44A4.61,4.61,0,0,1,135,5a5.26,5.26,0,0,1-1.58,3.88,5.41,5.41,0,0,1-4,1.58A5.62,5.62,0,0,1,125.44,9ZM125,16.66h8.75V54H125Z"/><path d="M191.8,20.37q4.26,4.13,4.27,12.25V54h-8.75V33.74q0-4.91-2.31-7.39a8.57,8.57,0,0,0-6.58-2.48,10.11,10.11,0,0,0-7.63,2.9Q168,29.68,168,35.14V54h-8.75V16.66h8.33v4.83A13.59,13.59,0,0,1,173,17.57a19.55,19.55,0,0,1,7.42-1.33Q187.52,16.24,191.8,20.37Z"/><path d="M236.46,38,230,44.17V54H221.2V2.1H230V33.46l18.13-16.8h10.5L243,32.34,260.05,54H249.41Z"/><path d="M41.93,96.66l-17.5,40.39q-2.45,6.09-5.95,8.58A14.29,14.29,0,0,1,10,148.11a17.28,17.28,0,0,1-5.53-.91A12.34,12.34,0,0,1,0,144.68l3.5-6.44a9.59,9.59,0,0,0,3,1.89,9,9,0,0,0,3.46.7,6,6,0,0,0,3.81-1.19,10.4,10.4,0,0,0,2.77-4l.63-1.47L.84,96.66h9.1L21.7,124.31,33.53,96.66Z"/><path d="M68,132.08a17.91,17.91,0,0,1-7.11-6.83,20.43,20.43,0,0,1,0-19.77A18,18,0,0,1,68,98.69a22.69,22.69,0,0,1,20.51,0,17.92,17.92,0,0,1,7.1,6.79,20.36,20.36,0,0,1,0,19.77,17.82,17.82,0,0,1-7.1,6.83,22.69,22.69,0,0,1-20.51,0Zm18.2-8.26a13,13,0,0,0,0-16.94,11.46,11.46,0,0,0-15.93,0,13.09,13.09,0,0,0,0,16.94,11.46,11.46,0,0,0,15.93,0Z"/><path d="M156.73,96.66V134H148.4v-4.76a14,14,0,0,1-5.25,3.89,16.91,16.91,0,0,1-6.79,1.36q-7.5,0-11.8-4.16T120.26,118V96.66H129v20.16q0,5,2.27,7.53a8.37,8.37,0,0,0,6.48,2.48,9.79,9.79,0,0,0,7.45-2.91Q148,121,148,115.56V96.66Z"/><path d="M203.84,96.24v8.33a11.2,11.2,0,0,0-2-.21q-5.12,0-8,3c-1.92,2-2.87,4.85-2.87,8.58V134h-8.75V96.66h8.33v5.46Q194.32,96.24,203.84,96.24Z"/><path d="M44,176.66v31.71q0,19.74-20.16,19.74a37.43,37.43,0,0,1-10.22-1.36,21.79,21.79,0,0,1-8-4l3.92-6.58a18.62,18.62,0,0,0,6.2,3.25,24.12,24.12,0,0,0,7.59,1.23q6.16,0,9-2.8c1.91-1.87,2.87-4.71,2.87-8.54v-2a14.37,14.37,0,0,1-5.46,3.71,19.24,19.24,0,0,1-7.07,1.26,20.21,20.21,0,0,1-9.62-2.28,17,17,0,0,1-6.8-6.4,19.19,19.19,0,0,1,0-18.87,16.87,16.87,0,0,1,6.8-6.33,20.55,20.55,0,0,1,9.62-2.24,19.59,19.59,0,0,1,7.38,1.33,13.62,13.62,0,0,1,5.57,4.06v-5ZM32.23,202a10.07,10.07,0,0,0,3.19-7.73,9.88,9.88,0,0,0-3.19-7.63,11.54,11.54,0,0,0-8.15-2.94,11.67,11.67,0,0,0-8.23,2.94,9.91,9.91,0,0,0-3.18,7.63A10.1,10.1,0,0,0,15.85,202a11.56,11.56,0,0,0,8.23,3A11.43,11.43,0,0,0,32.23,202Z"/><path d="M91.14,176.24v8.33a11.2,11.2,0,0,0-2-.21q-5.11,0-8,3c-1.92,2-2.87,4.85-2.87,8.58V214H69.51V176.66h8.33v5.46Q81.62,176.24,91.14,176.24Z"/><path d="M119.49,212.08a17.91,17.91,0,0,1-7.11-6.83,20.43,20.43,0,0,1,0-19.77,18,18,0,0,1,7.11-6.79,22.69,22.69,0,0,1,20.51,0,17.92,17.92,0,0,1,7.1,6.79,20.36,20.36,0,0,1,0,19.77,17.82,17.82,0,0,1-7.1,6.83,22.69,22.69,0,0,1-20.51,0Zm18.2-8.26a13,13,0,0,0,0-16.94,11.46,11.46,0,0,0-15.93,0,13.09,13.09,0,0,0,0,16.94,11.46,11.46,0,0,0,15.93,0Z"/><path d="M230.37,176.66,216.58,214h-8.4l-9.66-25.76L188.72,214h-8.4L166.6,176.66h8.26l9.87,27.58L195,176.66h7.35l10.08,27.72,10.15-27.72Z"/><path d="M272.86,212a10.35,10.35,0,0,1-3.75,1.89,16.85,16.85,0,0,1-4.65.63q-6.16,0-9.52-3.22t-3.36-9.38v-18h-6.16v-7h6.16V168.4h8.75v8.54h10v7h-10v17.78a5.92,5.92,0,0,0,1.33,4.17,5,5,0,0,0,3.85,1.43,7.67,7.67,0,0,0,4.9-1.54Z"/><path d="M326.62,180.37q4.26,4.13,4.27,12.25V214h-8.75v-20.3q0-4.91-2.31-7.39a8.57,8.57,0,0,0-6.58-2.48,10.11,10.11,0,0,0-7.63,2.9q-2.81,2.91-2.8,8.37V214h-8.75V162.1h8.75V181a14.24,14.24,0,0,1,5.35-3.54,19.83,19.83,0,0,1,7.11-1.22Q322.35,176.24,326.62,180.37Z"/><path d="M356,213a5.21,5.21,0,0,1-1.61-3.89,5.09,5.09,0,0,1,1.61-3.85,5.61,5.61,0,0,1,4.06-1.54,5.41,5.41,0,0,1,3.95,1.54,5.17,5.17,0,0,1,1.58,3.85A5.29,5.29,0,0,1,364,213a5.4,5.4,0,0,1-3.95,1.57A5.59,5.59,0,0,1,356,213ZM354.9,165h10.36l-1.75,32.76h-6.93Z"/></g></g></g></g></svg>