<svg xmlns="http://www.w3.org/2000/svg" viewBox="0 0 816.46 169.55"><defs><style>.cls-1{opacity:0.2;}.cls-2{fill:#f8bb2c;}</style></defs><g id="Layer_2" data-name="Layer 2"><g id="design"><g class="cls-1"><path class="cls-2" d="M37,124.45a3.15,3.15,0,0,1,1.05-.53c1.78-.5,3.54-1.11,5.34-1.44a39.21,39.21,0,0,0,6.84-1.83,1.86,1.86,0,0,1,1-.08,4.61,4.61,0,0,0,3.59-.73,1.13,1.13,0,0,1,.55-.21c3.08.05,5.81-1.95,9-1.5.68.09,1.39-1.06,2.4-.61a9,9,0,0,0,1.32.37c.07-.49,0-.94.21-1.13s.68-.22,1-.62a4.8,4.8,0,0,0-1,0c-5.67,1.14-11.33,2.28-17,3.47-3,.63-6,1.43-9.1,2-1.41.27-3.17-.27-4.24.41a38.29,38.29,0,0,1-3.87,1.7c-.23.12-.57,0-.94-.29l1.39-.62-.84-.77c2.18-.65,4.32-1.36,6.49-1.92a38.91,38.91,0,0,1,3.89-.63c.26,0,.6.06.79-.07,2.33-1.62,5.13-1.71,7.75-2.29,5.64-1.27,11.32-2.37,17-3.52a4.28,4.28,0,0,0,2.91-1.79c1.87-2.62,3.85-5.16,5.77-7.74,1.42-1.9,2.77-3.85,4.25-5.7,4.22-5.29,8.49-10.53,12.73-15.8,1.2-1.49,2.35-3,3.77-4.84l-2.82.55c1.85-2.26,3.5-4.17,5-6.17,2.78-3.6,6.23-6.57,9.32-9.89a3,3,0,0,0,.85-1.54c.14-1.25,1-1.64,2-1.95,3.1-1.05,7.73.58,9.12,3.51a4.78,4.78,0,0,1-.17,4.86c-.74,1.15-.82,2.74-1.15,4.13-.22,1-.18,2-1.23,2.58a.82.82,0,0,0-.31.49c-.57,2.11-1.14,4.22-1.66,6.33-1,3.92-1.9,7.85-2.89,11.76a144.42,144.42,0,0,0-3.7,18.9c-.41,3.61-1,7.22-1.1,10.85-.2,4.43-.47,8.9.5,13.29a24.06,24.06,0,0,0,2.87,8c2.26-.74,2.76-3.26,4.93-4.47a8.18,8.18,0,0,1,.29,2c-.26,1.79-.74,3.55-1,5.34s-1.49,2.91-3.22,2.24c-.8-.31-1.41-1.23-2.4-.44,0,0-.23-.1-.33-.18-2.12-1.85-5.06-2.5-6.89-4.78a17.24,17.24,0,0,1-3.63-7.43c-.33-1.66-.87-3.27-1.19-4.94a19.79,19.79,0,0,1-.28-3.36c0-1.46.1-2.93,0-4.38s-.29-2.9-.47-4.6c-1.45.08-3,.08-4.43.26-2.49.32-5,.73-7.46,1.12-3.45.55-6.89,1.26-10.37,1.62a5.81,5.81,0,0,0-4.84,3.22c-.49.86-.93,1.74-1.39,2.6l.75.5c-.25.33-.44.86-.71.9-1.89.32-2.22,2.05-3,3.3-1.4,2.36-2.63,4.83-3.86,7.29a6.76,6.76,0,0,0-.64,2.25,4.76,4.76,0,0,1-.9,2.94c-.15,0-.33-.06-.49-.11s-.32-.15-.57-.26c-.49,1.58-.86,3.1-1.43,4.56a8.91,8.91,0,0,1-1.54,1.91,2.43,2.43,0,0,1,0,.94,55.56,55.56,0,0,0-1.65,5.68c-.38,2.36-.37,4.79-.54,7.32,3.59.85,6.55-.62,9.68-1.69-.48,2-1.45,3-3.55,3.87-.61,1.06-1.13,2-1.68,2.89a11.17,11.17,0,0,1-7.91-4.65,18.12,18.12,0,0,1-3.72-10.53,11.7,11.7,0,0,1,.07-1.19,3.91,3.91,0,0,1,.39-.77c0,1.26-.06,2.16-.08,3.06l.3,0c2.06-5.34,3.92-10.77,6.25-16s5.15-10.28,7.84-15.57a11.83,11.83,0,0,0-1.61.18c-3.13.77-6.25,1.59-9.38,2.36a18.27,18.27,0,0,1-2,.24,7.43,7.43,0,0,0-2.09.34,31.47,31.47,0,0,1-8,2.44c-1.15.2-2.22.8-3.36,1.12s-2.3.52-3.46.78c-.16-1.27-.76-1.34-1.7-.78.23.35.43.63.6.9-.08.12-.1.21-.15.23a14,14,0,0,1-2.79,1.17A18.4,18.4,0,0,0,24.54,135c-1.15.65-2.83.44-3.93,1.54-3,.32-5.49,1.8-8,3.13-2.88,1.51-5.63,3.26-8.39,5a8.55,8.55,0,0,0-1.54,1.73l1.87,1.27C2.67,149.32,1.87,149,.84,147A10.84,10.84,0,0,1,0,142c0-1.83,1.18-3.36,2.38-4.72a37.31,37.31,0,0,1,10.26-7.72c1.76.12,2.82-1.81,4.64-1.58.3,0,.66-.32,1-.52.1-.07.15-.27.25-.3.84-.3,1.47-1.57,2.66-.49.27.25,1.12-.15,1.7-.27l3-.65c-.8,1.29-1.86,1.32-2.71,1.66-3.2,1.27-6.47,2.39-9.63,3.75-2,.84-3.81,2-5.71,3,.06.14.11.29.17.44a7.59,7.59,0,0,0,1.33-.41c1.64-.85,3.24-1.82,4.91-2.6a9.6,9.6,0,0,1,2.83-.78c1-.13,1.83-1.16,3-.71.51-1.63,1.87-.95,2.94-1.12s2.31-.49,3.47-.75l0-.05a2.27,2.27,0,0,1-.59.49c-3.35,1.24-6.71,2.44-10,3.73a11.16,11.16,0,0,0-1.94,1.24c-1.68.29-1.68.29-2.13,1.36l2.08-1.41a29.5,29.5,0,0,0,4-1.15,91.16,91.16,0,0,1,12.57-4c3.24-.91,6.41-2.06,9.72-2.75s6.49-1.63,9.73-2.47c.45-.11.88-.26,1.33-.36,3.71-.88,7.41-1.77,11.12-2.6,1.42-.32,2.86-.52,4.29-.77.54-.09,1-.25,1-1.08-4.28.81-8.48,1.52-12.64,2.43-3.74.83-7.41,1.94-11.14,2.84-2.23.53-4.5.9-6.76,1.35l.07,0C37,124.91,36.93,124.55,37,124.45ZM31.62,126a53.88,53.88,0,0,1,5.41-.84l-.07,0a37.14,37.14,0,0,1-10.53,3.11l0,.05A14.22,14.22,0,0,1,31.62,126ZM60,136.71q1.32-2.44,2.57-4.92c.56-1.11,1-2.28,1.62-3.36,1-1.68,2-3.3,3-5-1.1-.51-1.57.21-2,.72a17.64,17.64,0,0,0-1.54,2.67c-1.07,2.11-2.11,4.23-3.15,6.36-.63,1.29-1.67,2.43-1.53,4a43.72,43.72,0,0,0-2.56,4.37c-1.1,2.47-1.91,5.06-3,7.54a6.35,6.35,0,0,0-.75,3.64,28.89,28.89,0,0,0,1.69-3.67c1.29-3.42,2.37-6.93,4.39-10a5.32,5.32,0,0,0,.42-1.68C59.5,137.14,59.83,137,60,136.71ZM56.13,153.6l-1.07,2.28C56.34,155.5,56.39,154.62,56.13,153.6Zm.79-2.55c1.47-.63,1.28-2,1.38-3.23Zm2.36-5.23c-.15.38-.29.77-.44,1.16l.25.11.56-1.05Zm5-10.77c-.72,1.44-1.39,2.8-2.06,4.15C64.26,137.2,64.65,136.36,64.3,135.05Zm4.83-16.38a1.24,1.24,0,0,0,1.75-.79l-1.8.37C69.09,118.39,69.11,118.53,69.13,118.67ZM72,115.44l-1.12.32c.37.22.54.41.66.38a2.28,2.28,0,0,0,.59-.36C72.07,115.67,72,115.56,72,115.44Zm3.41-3.67c1.06-1.43,2.1-2.87,3.18-4.28q2.88-3.73,5.79-7.43c2.08-2.64,4.25-5.2,6.2-7.93.49-.69,1.45-1.42,1.19-2.88-3.3,4-6.47,7.74-9.5,11.58s-5.91,7.79-9,11.87C74.83,112.55,74.83,112.54,75.39,111.77Zm26.06-7.18c.59-3.49,1.14-7,1.8-10.47a28.18,28.18,0,0,1,1.41-5.49c.74-1.82.5-3.77,1.16-5.56a13.34,13.34,0,0,0,.32-1.47c-4.27,5.05-8.48,9.62-12.19,14.57S85.69,105.35,82.6,111l18.26-2.87C101.06,106.93,101.25,105.76,101.45,104.59Zm4,34.33c-.08-1.14-.14-2.29-.25-3.43-.19-2-.48-4-.58-5.94s.27-3.79.18-5.7c-.06-1.51.13-3,.16-4.54,0-.28-.25-.56-.59-1.28-.18.85-.3,1.22-.33,1.59-.12,1.58-.27,3.15-.31,4.73-.09,3-.63,6,0,9,.18,1,.72,1.82.94,2.76A24.19,24.19,0,0,1,105,139Zm.88-30.44a12.08,12.08,0,0,0,.35-1.44c.09-.65-.12-1.42.17-2,1.38-2.59,1.23-5.56,2.13-8.27a9.21,9.21,0,0,0,.06-2.58l-.4,0c-1.08,4.66-2.46,9.26-2.78,14.09Zm1.59,9.59-.72,5C108.26,122.15,108.43,121,108,118.07Zm.09,18.06-.27-2.61-.27,0c.1.87.19,1.74.28,2.61Z"/><path class="cls-2" d="M232.13,91.26C231,92.52,230,93.71,229,94.89a28.38,28.38,0,0,1-2.53,2.72c-2.48,2.15-5.15,4.09-7.52,6.35-2.53,2.39-5.44,4.25-8.13,6.41a46.83,46.83,0,0,1-5.8,4.21c-.38.22-1.06.4-.69,1.19.07.14-.25.57-.49.73-1.07.73-2.17,1.4-3.3,2.12l0-.7c-.11,0-.27-.12-.33-.08-2.36,1.66-4.73,3.31-7.06,5-.56.41-.82,1.08-1.74,1.17-.69.06-1.3.81-1.94,1.24a13.16,13.16,0,0,0,0,6.74,9.75,9.75,0,0,0,4.15-3.37,28.87,28.87,0,0,1,2.18-2.84,7.19,7.19,0,0,1,1.77-1,2.1,2.1,0,0,1,0,2,28.48,28.48,0,0,0-1.86,7,8.89,8.89,0,0,1-2.32,4.05c-.41.47-1.71.17-2.61.19s-1.76-1.46-2.91-.43l-2.55-2.23c-1.37.34-2.21-1-3.22-1.89a14.46,14.46,0,0,1-1.34-1.6c-2.35,1.81-5.06,2.64-7.46,4.17a58.22,58.22,0,0,1-7.87,4.7c-2.1.92-4.22,1.8-6.32,2.7-1.64.71-3.25,1.49-4.92,2.11a20.33,20.33,0,0,1-3.63.92,5.12,5.12,0,0,1-5.66-3.49,12.49,12.49,0,0,0-1.21-2.16c-.53-.9.06-2.8,1.24-3.85.95.11,1.83,1.38,2.87,0,.5,1.91-1.77,1.9-1.68,3.45a4.19,4.19,0,0,0,2.5-.52c1.28-.79,2.74-1.28,4.09-2,2.71-1.36,5.47-2.65,8.08-4.18,5.3-3.12,10.51-6.37,15.75-9.57a11.91,11.91,0,0,0,2.08-1.49,2.3,2.3,0,0,0,.62-1.54c-.25-3.45.7-6.77,1-10.17,0-.09.15-.16.37-.4-.2,2.43-.38,4.7-.57,7l.33,0c.22-1.14.47-2.28.64-3.42.57-3.73.92-7.5,1.7-11.19,1.26-5.92,2.75-11.8,4.23-17.68.71-2.81,1.64-5.56,2.4-8.36a14.69,14.69,0,0,0,.25-2.41l-.55-.11c-.48,1.41-1,2.81-1.45,4.21l-.4-.12c.95-3.41,1.9-6.82,2.88-10.31-.22,0-.44-.11-.55,0a44.13,44.13,0,0,0-7.81,6c-1,1-2.08,2-3.13,3-.19.17-.42.42-.64.43-2.18.12-2.9,1.77-3.66,3.4a1.67,1.67,0,0,0,.31,2.15,12,12,0,0,1,1.35,1.93c-1,1-1.34,2-.63,3.32a1.69,1.69,0,0,1-.45,1.54,1.74,1.74,0,0,1-1.63,0,12.49,12.49,0,0,1-1.94-1.91c-2.75-2.84-3.73-6.48-4.45-10.19a3.4,3.4,0,0,1,.67-2.58c1.13-1.22,1.69-2.81,2.86-4s2.28-2.37,3.53-3.44,2.69-2.11,4.08-3.1c2.69-1.89,5.37-3.8,8.13-5.59,2-1.3,4.12-2.38,6.14-3.64a7,7,0,0,0,2.39-2,3.64,3.64,0,0,1,3.45-1.79,10.7,10.7,0,0,0,3.58-.93,102.4,102.4,0,0,1,11.19-3.43,57.13,57.13,0,0,1,9.06-1,24.89,24.89,0,0,1,9.74,1.55,16,16,0,0,1,6.67,4.4,60.32,60.32,0,0,1,4.92,5.92,9.22,9.22,0,0,1,1.25,3.72,23.77,23.77,0,0,1-.34,7.88,35.46,35.46,0,0,1-3,9.19,88.82,88.82,0,0,1-4.75,8.46c-1,1.62-2.3,3.06-3.57,4.73Zm-73.25,45.18c-2.15,1.16-4.47,2-6.43,3.5L148,141.6c.07.15.13.3.2.46a5.89,5.89,0,0,0,4.2-2.15C156.6,138.77,158.14,138,158.88,136.44Zm-5.65,5c-.07.07,0,.23-.09.43l1.56-.17C154.06,140.79,153.64,141.07,153.23,141.45Zm26.19-12.15a4.06,4.06,0,0,0-1.19.25c-1.08.64-2.1,1.36-3.16,2-2,1.25-4.06,2.46-6.08,3.7-1.86,1.15-3.66,2.41-5.58,3.43-2.79,1.49-5.67,2.81-8.5,4.22-.22.11-.37.38-.88.92a9,9,0,0,0,1.17-.28c1.74-.83,3.41-1.83,5.2-2.48,4.46-1.61,8.14-4.6,12.27-6.78a23.74,23.74,0,0,1,2.41-1.34c1.8-.7,3-2.11,4.56-3.14C179.57,129.65,179.5,129.47,179.42,129.3Zm-20,9.72c2.94-1.55,5.94-3,8.78-4.75,2.23-1.37,4.65-2.41,6.66-4.18a27,27,0,0,1,4.18-2.53c-.06-.6-.11-1.09-.18-1.74-.39.26-.65.45-.91.63-2.33,1.62-4.6,3.34-7,4.84-3.69,2.31-7.47,4.45-11.2,6.7a10.9,10.9,0,0,0-1.44,1.29,6.08,6.08,0,0,0-3.41,2.05c1.63-.41,2.91-.57,3.35-2.1A4,4,0,0,0,159.42,139Zm2.44-4.29c2.45.08,3.59-1.92,5.4-2.56a13.36,13.36,0,0,0,2.7-1.66c.09-.06,0-.35.08-1.09C167.36,131.62,164.25,132.32,161.86,134.73Zm9.9-6.11c1.35-.24,2.44-.39,3.1-1.89C173.31,126.72,172.59,127.49,171.76,128.62Zm6.2-4.1c1,.11,1.29-.23,1.08-1.44Zm3.09-16.44c-.57-.6-.69-1.2-.14-1.78l0,0Zm.17-5.17.39.07a5.53,5.53,0,0,1-.75,3.28l0,0C181,105.17,181.12,104,181.22,102.91Zm2.05-9.7.28.05c-.06.35-.11.69-.17,1l-.31-.06C183.14,93.9,183.2,93.55,183.27,93.21Zm1.35,23.32c.86-1.41.53-2.72.61-4A4.64,4.64,0,0,0,184.62,116.53Zm1.12-5.36c0-.4,0-.81,0-1.22l-.4,0c0,.4-.07.81-.11,1.22Zm-.11-17-.18,1,.35.06.21-1Zm.81,38.87c.66-1.1-.51-2.18-.41-3.28l-.12,3.22Zm.74-32.71-.18.83.33.06c0-.27.11-.55.16-.82Zm1.29-5.81-1.17,4.12C188.58,97.13,188.83,96.24,188.47,94.53Zm31.75,4.15c-2.05,1.81-4,3.75-6,5.56-1.87,1.64-3.82,3.17-5.74,4.75-1.65,1.08-3.32,2.12-4.93,3.25-1,.72-1.83,1.89-2.94,2.3-1.69.61-2.79,1.94-4.26,2.79a43.34,43.34,0,0,0-4.52,3.13c-1.08.82-2.7,1.26-2.55,3.26,1.37-.94,2.66-1.79,3.92-2.69,3.66-2.59,7.33-5.17,10.95-7.82,1.44-1,2.78-2.24,4.13-3.41.17-.15.11-.55.17-.83a8,8,0,0,0,2-.6,23.57,23.57,0,0,0,2.42-2c2.32-2,4.67-3.88,6.94-5.89.94-.83,2.1-1.56,2.4-3A2.17,2.17,0,0,0,224,95.63c-.69.56-1.83.71-1.75,2A9.75,9.75,0,0,0,220.22,98.68Zm5.2-10A27.43,27.43,0,0,0,222.81,91c-1,1.11-1.65,2.71-2.84,3.46-1.68,1.07-2.51,2.81-4,4-2.52,2-5,4.1-7.64,6s-5.29,3.56-7.88,5.43c-.77.57-1.21,1.58-2,2.19-1.8,1.45-3.68,2.81-5.54,4.18-.91.66-1.89,1.22-2.77,1.92-.24.19-.25.68-.37,1.08l4.65-2.08a1.16,1.16,0,0,0,.46-.36c1-1.31,2.39-2,3.69-2.89,3.55-2.48,6.92-5.23,10.36-7.88.67-.52,1.29-1.12,2-1.62a65.92,65.92,0,0,0,9.88-8.54c.46-.49.68-1.21,1.17-1.66s1.36-.52,1.09-1.6c-.08-.28.63-.78,1-1.16a12.24,12.24,0,0,0,1.39-1.4,4.07,4.07,0,0,0,.36-1.35ZM191,114.33c3.54-2.56,7.09-5.09,10.56-7.72.65-.49.87-1.57,1.53-2s1.77-.5,2.54-1c2-1.17,3.32-3.08,5.25-4.34a26.77,26.77,0,0,0,3.62-3.53c2.34-2.32,4.67-4.65,7.05-6.92a40.49,40.49,0,0,0,5.27-5.6c1.47-2,3.14-4,4.56-6a36.91,36.91,0,0,0,2.46-4.5c1.12-2.26.8-5.09,2.82-7,.26-.24.14-.89.16-1.36.13-2.29.24-4.59.38-6.88.1-1.57-.25-2.08-1.72-2.71a22,22,0,0,0-7.08-1.63,32.74,32.74,0,0,0-5.94,0c-2.73.33-5.37,1.31-8.16,1.34a3.09,3.09,0,0,0-1.28.48,66.26,66.26,0,0,1-6.21,3.2,6.13,6.13,0,0,0-3.64,4.33c-.47,1.45-.88,2.92-1.35,4.37-.73,2.26-1.55,4.49-2.21,6.76-1.07,3.69-2,7.41-3.07,11.1-.92,3.24-2,6.44-2.86,9.69-.38,1.39-.27,3-.8,4.28a26.69,26.69,0,0,0-1.52,7.15c-.08.79-.21,1.57-.31,2.36-.28,2.07-.55,4.13-.84,6.31C190.67,114.39,190.9,114.42,191,114.33Zm35.69-21.68c-.71.23-1.12.7-1.23,1.88L227,93Zm-.46-4.88c1.07.16,1.46-.09,1-1.16Zm5-.6A21.82,21.82,0,0,0,227.52,92C229.15,90.66,230.68,89.29,231.27,87.17Zm.58-6.64c-1.83,1.27-2.83,3.17-3.94,5C229.89,84.36,230.8,82.39,231.85,80.53Z"/><path class="cls-2" d="M337.66,111.92a1.66,1.66,0,0,1,2-.22,1.43,1.43,0,0,1,.64,1.2,2.53,2.53,0,0,0,0,2.23c.5,1.07.06,1.68-.88,2.55-2.2,2-6.32,2-8.67.24a5.81,5.81,0,0,0-2.42-1.28,3.32,3.32,0,0,1-2-1.36c-1.22-1.28-2.51-2.5-3.7-3.82a9.63,9.63,0,0,1-2.32-6.43,40.12,40.12,0,0,1,.54-7.67c.73-4.14,1.68-8.25,2.72-12.32.5-1.91,1.45-3.71,2.14-5.58a7.28,7.28,0,0,0,.57-2.21c.11-2.22,1.52-3.93,2.25-5.89a12.93,12.93,0,0,0,.49-1.57,41.21,41.21,0,0,1,1.54-4.23c.24-.66.44-1.33.79-2.42-.59.38-.85.45-1,.63-.57.93-.73,2.2-2.09,2.46.06,1-.75,1.54-1.32,2.24a15.54,15.54,0,0,0-2.91,4.43A21.16,21.16,0,0,1,322.43,76c-1.47,2.58-2.79,5.27-4.49,7.68-1.95,2.76-2.88,6-4.51,8.87a8.87,8.87,0,0,1-2.81,3.26c-1.53,1-1.95,2.54-2.54,4-.46,1.19-.76,2.46-2.1,3.26a17.72,17.72,0,0,1-6.26-3.78c-.93-.92-1.32-2.38-2-3.6a77,77,0,0,1-4-7.75,52.47,52.47,0,0,1-3.28-14.5c0-.26-.06-.52-.13-1.24a53.61,53.61,0,0,0-2.63,5.51c-.92,2.64-2,5.2-3,7.81-1.49,4-2.84,8-4.29,11.94-.28.76-.8,1.44-1,2.21-.66,2.06-1.22,4.15-1.84,6.23-.15.49-.39,1-.53,1.43-.28.93-.51,1.86-.75,2.79-.08.32-.11.65-.19,1-.58,2.48-1.09,5-1.76,7.44a109.35,109.35,0,0,0-2.18,11.61,21.25,21.25,0,0,0-.05,7.29c.29,1.59-.1,3.29-.09,4.94a16,16,0,0,0,.31,3.32,16.5,16.5,0,0,0,3.05,7c.25.31.54.57.78.84a4.91,4.91,0,0,0,3-2.32,1.52,1.52,0,0,1,1.93-.82c.32.83.84,1.66.25,2.69-.14.24,0,.64,0,1,.42,2.45-1,4.21-3.38,4a14.23,14.23,0,0,1-7.63-3,18,18,0,0,0-1.53-1.24c-4.25-2.75-6.29-6.88-7.19-11.67a33.47,33.47,0,0,1,.06-12.26c.1-.58,0-1.2.08-1.78.33-2.4.81-4.78,1-7.19.26-2.91,1.66-5.58,1.7-8.52,1.25-1.93.29-4.5,1.84-6.37.3-.35.22-1,.34-1.52,1.11-4.6,2.53-9.1,4-13.61,1.23-3.85,3.1-7.49,3.78-11.52a6.06,6.06,0,0,1,.45-1.1c.62-1.51,1.25-3,1.84-4.52,1.31-3.38,2.57-6.77,3.9-10.14q1.08-2.76,2.36-5.45a22.08,22.08,0,0,1,1.68-2.63c.22-.33.61-.58.73-.94.31-.89.57-1.8,1.68-2a20.78,20.78,0,0,1,3.49-.42,16.9,16.9,0,0,1,3.1.58c1.54.33,2.93.83,3.49,2.56a4.46,4.46,0,0,0,1,1.65c2,2.1,2.27,4.73,2.39,7.45.22,5,.38,10,.78,14.94a72.29,72.29,0,0,0,1.34,7.23,3.12,3.12,0,0,1,0,2.27,1.89,1.89,0,0,0,.81,2.3c.87-1.39,1.78-2.7,2.52-4.09a109.45,109.45,0,0,1,8.06-13c1.05-1.43,1.89-3,3-4.44,1.95-2.58,4-5.06,6-7.6,1.64-2.08,3.23-4.19,4.87-6.26,2.83-3.58,5.54-7.29,8.61-10.65,1.54-1.68,3-3.42,4.46-5.15,1.19-1.4,2.53-2.72,4.64-2.5a5.92,5.92,0,0,1,1.52.28c1.11.43,2.17,1,3.27,1.42A5,5,0,0,1,353.23,44a1.69,1.69,0,0,1-.39.88c-1.29,1.31-1.76,3.08-2.64,4.61-2,3.51-3.26,7.37-5.06,11-1,2-1.51,4.09-2.45,6a59.79,59.79,0,0,0-2.5,6.56,29,29,0,0,1-1.3,2.62c-2,4.25-1.94,9.18-4.36,13.29-.94,4.57-2.66,8.94-3.09,13.64a32.79,32.79,0,0,0-.2,7.34,7.45,7.45,0,0,0,1.5,4.16A8.15,8.15,0,0,0,337.66,111.92Zm-60-28.31c-.43.85-.89,1.69-1.28,2.55a19.64,19.64,0,0,1-1.44,3.27c-.7,1-.46,2.28-1.35,3.26A8.53,8.53,0,0,0,272,96c-.62,2.12-.41,4.47-1.89,6.34.14,3.29-2.24,5.93-2.31,9.26a17.22,17.22,0,0,1-1.65,5.78c-1.51,3.77-1.76,7.84-3,11.66a3.62,3.62,0,0,0-.05,1.19c0,1.58-.19,3.15-.25,4.72-.15,3.92-.3,7.88,2.33,11.63a5.73,5.73,0,0,0,.32-1.28c0-.49-.23-1-.24-1.47,0-1.62-.09-3.25,0-4.87q.12-3.34.42-6.68c.12-1.43.37-2.85.6-4.27a10,10,0,0,1,.37-1.29,3.32,3.32,0,0,0,.31-1c-.3-2.69.64-5.23,1.29-7.71s1-5.34,1.93-7.92a10.56,10.56,0,0,0,1.06-4.55,3.75,3.75,0,0,1,.7-2.44,3.75,3.75,0,0,0,.69-2,12.62,12.62,0,0,1,.4-1.72c.5-1.67,1-3.33,1.56-5a32.53,32.53,0,0,1,1.65-5c.74-1.47.56-3.27,1.77-4.54.19-.2,0-.73,0-1.11Zm-6.57,33.67c-.61,2.2-1.23,4.39-1.84,6.58,0,.06,0,.14,0,.2a32.81,32.81,0,0,1-.73,3.41,21.59,21.59,0,0,0-1.12,6.37,63.93,63.93,0,0,1-.12,7.33c-.39,3.26.48,6.21,1.53,9.16a14,14,0,0,0,.71,1.46c.32-.34.4-.61.3-.78a9.53,9.53,0,0,1-1.29-6.28c0-.24-.12-.51-.14-.77a16.13,16.13,0,0,1-.25-3.71c.21-1.45-.4-3,.4-4.36.11-.2-.17-.62-.25-.94a1.67,1.67,0,0,1-.12-.75,30.36,30.36,0,0,0,1.23-5.31,74.94,74.94,0,0,1,1.45-7.49c.26-1.33.5-2.67.75-4Zm2.43-7.67-.45-.1c-.25,2.42-2,4.49-1.32,7.14ZM334.34,63c-1,2.06-2,4.14-3,6.18-2.63,5.15-4,10.76-5.8,16.19-1.34,4.06-2.06,8.33-3.18,12.47-.51,1.91,0,4-.9,5.79,1,.86.34,2.11.82,3.33.36-.54,1.36-.49.68-1.47a.81.81,0,0,1,0-.73,19.2,19.2,0,0,0,1.64-5.84,14.42,14.42,0,0,1,1.33-4.71,4.38,4.38,0,0,0,.53-1.65,23.27,23.27,0,0,1,2.89-8.46c.09-.14,0-.37.06-.55.25-1,.47-2,.79-3s.69-1.67,1-2.52c.7-1.85,1.36-3.7,2.06-5.54.09-.24.42-.53.36-.65-.7-1.28.32-2.17.67-3.21s1.17-2.21,1-3.15c-.29-1.38.2-2.24,1.15-3.45A1.78,1.78,0,0,0,334.34,63Zm-8.29,42.88c-.11.25.2.68.4,1.24.39-.73.64-1.18.94-1.73C326.46,104.78,326.21,105.48,326.05,105.85Zm1.23-5.3c-.15.79-.24,1.27-.38,2C327.83,101.7,327.83,101.7,327.28,100.55Zm1.81-5.69c.05-.58.08-1,.11-1.41.37-.39,1-.7.17-1.73l-.11,1.78C328.56,94.06,328.56,94.06,329.09,94.86Zm3.16-35.14c-.36.41-1.24.55-.65,1.71l1-1.47Z"/><path class="cls-2" d="M369.23,89.54a3.15,3.15,0,0,1,1-.53,52.63,52.63,0,0,1,5.34-1.44,41.06,41.06,0,0,0,6.84-1.83,2,2,0,0,1,1-.09,4.61,4.61,0,0,0,3.59-.72,1.06,1.06,0,0,1,.54-.22c3.09.05,5.82-1.94,9-1.5.69.1,1.4-1,2.41-.6a9,9,0,0,0,1.32.36c.07-.48,0-.93.21-1.12s.68-.22,1-.63a4.19,4.19,0,0,0-1,0c-5.67,1.14-11.33,2.28-17,3.46-3,.64-6.05,1.44-9.1,2-1.41.27-3.17-.26-4.24.42-1.25.79-2.62,1.06-3.87,1.7-.23.11-.57,0-.94-.29l1.39-.63-.84-.77c2.18-.65,4.32-1.35,6.49-1.91a36.23,36.23,0,0,1,3.89-.63c.26,0,.6,0,.79-.08,2.33-1.61,5.13-1.7,7.75-2.29,5.64-1.26,11.32-2.37,17-3.51a4.38,4.38,0,0,0,2.91-1.79c1.86-2.63,3.85-5.16,5.77-7.74,1.42-1.9,2.77-3.85,4.24-5.7,4.22-5.29,8.5-10.54,12.74-15.81,1.2-1.49,2.35-3,3.77-4.84l-2.82.55c1.85-2.25,3.49-4.17,5-6.16,2.79-3.61,6.24-6.58,9.33-9.89a3,3,0,0,0,.85-1.54c.14-1.26,1-1.64,2-2,3.1-1,7.73.58,9.12,3.52a4.78,4.78,0,0,1-.17,4.86c-.74,1.15-.82,2.73-1.15,4.13-.22,1-.18,2-1.23,2.58a.79.79,0,0,0-.31.49c-.57,2.1-1.14,4.21-1.67,6.33-1,3.91-1.89,7.84-2.88,11.75a144.89,144.89,0,0,0-3.7,18.91c-.42,3.61-.95,7.22-1.1,10.84-.2,4.43-.47,8.91.5,13.29a24,24,0,0,0,2.87,8c2.26-.74,2.76-3.26,4.93-4.46a7.64,7.64,0,0,1,.28,2c-.25,1.79-.73,3.55-.95,5.34s-1.49,2.9-3.22,2.23c-.8-.31-1.41-1.23-2.4-.44,0,0-.23-.09-.33-.18-2.12-1.84-5.06-2.49-6.89-4.77a17.24,17.24,0,0,1-3.63-7.43c-.33-1.66-.87-3.28-1.19-4.94a19.91,19.91,0,0,1-.28-3.37c0-1.46.1-2.92,0-4.38s-.29-2.89-.47-4.6c-1.45.08-2.95.08-4.43.27-2.49.31-5,.73-7.46,1.12-3.45.54-6.89,1.26-10.37,1.61a5.85,5.85,0,0,0-4.84,3.22c-.49.86-.93,1.74-1.39,2.61l.75.49c-.25.33-.44.86-.71.91-1.89.32-2.22,2-3,3.3-1.4,2.35-2.63,4.82-3.86,7.28a6.81,6.81,0,0,0-.64,2.26,4.73,4.73,0,0,1-.9,2.93,3.49,3.49,0,0,1-.5-.11,5.78,5.78,0,0,1-.57-.26c-.48,1.58-.86,3.11-1.42,4.56a9.18,9.18,0,0,1-1.54,1.92,2.41,2.41,0,0,1,0,.94,53.14,53.14,0,0,0-1.65,5.68c-.38,2.36-.37,4.78-.54,7.31,3.59.86,6.55-.61,9.68-1.68-.48,2-1.45,3-3.55,3.87-.61,1.05-1.13,1.94-1.69,2.88a11.14,11.14,0,0,1-7.9-4.65,18.1,18.1,0,0,1-3.72-10.52,9.39,9.39,0,0,1,.07-1.19,3.41,3.41,0,0,1,.39-.77c0,1.25-.06,2.16-.08,3.06l.3,0c2.06-5.34,3.91-10.77,6.25-16s5.15-10.28,7.84-15.58a14.08,14.08,0,0,0-1.62.18c-3.12.78-6.24,1.59-9.37,2.36a18.28,18.28,0,0,1-2,.25,7.09,7.09,0,0,0-2.09.33,31.08,31.08,0,0,1-8.05,2.44c-1.15.2-2.22.8-3.36,1.12s-2.3.53-3.46.78c-.16-1.26-.76-1.34-1.7-.77l.6.89c-.08.13-.1.21-.15.24A14.58,14.58,0,0,1,362.4,98a18.82,18.82,0,0,0-5.67,2.09c-1.15.65-2.83.44-3.93,1.55-3,.31-5.49,1.79-8,3.13-2.88,1.51-5.63,3.26-8.39,5a8.48,8.48,0,0,0-1.54,1.72l1.87,1.28c-1.85,1.65-2.65,1.35-3.68-.71a10.86,10.86,0,0,1-.84-5c0-1.82,1.18-3.36,2.38-4.72a37.28,37.28,0,0,1,10.26-7.71c1.75.11,2.81-1.81,4.63-1.58.31,0,.67-.33,1-.53.1-.07.14-.26.25-.3.84-.3,1.47-1.56,2.66-.48.27.24,1.12-.16,1.7-.28.89-.18,1.77-.38,3-.65-.8,1.3-1.86,1.33-2.71,1.67-3.2,1.27-6.47,2.39-9.63,3.74-2,.85-3.81,2-5.71,3,.05.15.11.3.17.45a8.54,8.54,0,0,0,1.33-.41c1.64-.86,3.24-1.82,4.91-2.61a9.59,9.59,0,0,1,2.83-.77c1-.13,1.83-1.17,3-.71.51-1.63,1.87-1,2.94-1.12s2.31-.5,3.47-.75l0,0c-.2.16-.37.4-.59.48-3.35,1.25-6.71,2.45-10,3.73a10.8,10.8,0,0,0-1.94,1.24c-1.68.3-1.68.3-2.13,1.36l2.08-1.4a31,31,0,0,0,4-1.15c4.05-1.79,8.34-2.78,12.57-4,3.24-.9,6.41-2.06,9.72-2.74s6.49-1.64,9.73-2.47c.44-.12.88-.26,1.33-.37,3.7-.87,7.41-1.76,11.12-2.6,1.42-.32,2.86-.52,4.29-.76.54-.1,1-.25,1-1.09-4.28.82-8.48,1.52-12.65,2.44-3.73.83-7.4,1.93-11.13,2.83-2.23.54-4.5.91-6.76,1.35l.07,0C369.22,90,369.12,89.63,369.23,89.54Zm-5.42,1.54a51.16,51.16,0,0,1,5.41-.84l-.07,0a36.83,36.83,0,0,1-10.53,3.12l0,0A14.05,14.05,0,0,1,363.81,91.08Zm28.36,10.71c.88-1.62,1.74-3.27,2.57-4.92.56-1.1,1-2.27,1.62-3.35.95-1.68,2-3.31,3.05-5-1.1-.51-1.57.21-2,.72a18.24,18.24,0,0,0-1.54,2.68c-1.07,2.1-2.12,4.23-3.15,6.35-.63,1.3-1.67,2.43-1.53,4a44.77,44.77,0,0,0-2.57,4.38c-1.09,2.46-1.9,5.06-3,7.53a6.37,6.37,0,0,0-.75,3.65,31.07,31.07,0,0,0,1.69-3.67c1.29-3.42,2.36-6.94,4.39-10a5.31,5.31,0,0,0,.42-1.69C391.69,102.22,392,102.06,392.17,101.79Zm-3.85,16.89L387.25,121C388.53,120.59,388.58,119.7,388.32,118.68Zm.79-2.54c1.47-.63,1.28-2,1.38-3.23Zm2.36-5.24-.44,1.17.25.11.56-1.06Zm5-10.77-2.06,4.16C396.45,102.29,396.83,101.45,396.49,100.13Zm4.83-16.37a1.24,1.24,0,0,0,1.75-.79l-1.8.37C401.28,83.48,401.3,83.62,401.32,83.76Zm2.85-3.23-1.12.32c.37.22.54.4.66.37a2,2,0,0,0,.59-.36C404.26,80.75,404.22,80.64,404.17,80.53Zm3.41-3.67c1.05-1.43,2.1-2.87,3.18-4.28q2.88-3.73,5.79-7.43c2.07-2.64,4.25-5.21,6.2-7.94.49-.69,1.45-1.42,1.18-2.87-3.29,4-6.46,7.74-9.49,11.58s-5.91,7.78-9,11.87C407,77.63,407,77.63,407.58,76.86Zm26.06-7.18c.59-3.49,1.14-7,1.8-10.47a28.46,28.46,0,0,1,1.41-5.5c.73-1.82.49-3.77,1.16-5.56a12.82,12.82,0,0,0,.32-1.47c-4.27,5.06-8.48,9.63-12.19,14.57s-8.26,9.19-11.35,14.81l18.26-2.87C433.25,72,433.44,70.85,433.64,69.68ZM437.69,104c-.08-1.15-.14-2.3-.25-3.44-.19-2-.48-3.95-.58-5.94s.27-3.78.18-5.7c-.06-1.5.13-3,.16-4.53,0-.28-.25-.57-.6-1.29-.17.86-.29,1.22-.32,1.6-.12,1.57-.27,3.15-.31,4.72-.09,3-.63,6,0,9,.18.94.72,1.82.94,2.76a24.26,24.26,0,0,1,.32,2.83Zm.87-30.44a10.45,10.45,0,0,0,.36-1.44c.09-.65-.12-1.43.17-2,1.38-2.59,1.23-5.55,2.12-8.26a8.85,8.85,0,0,0,.07-2.58l-.4,0c-1.08,4.67-2.46,9.27-2.78,14.09Zm1.6,9.59-.72,5C440.45,87.24,440.62,86.12,440.16,83.16Zm.09,18-.27-2.6-.27,0c.1.87.19,1.74.28,2.61Z"/><path class="cls-2" d="M498.3,73.47c-.13,0-.33,0-.37.1-1,1.74-3,1.17-4.52,2,.16.3.22.59.39.72,3.46,2.44,6.89,4.93,10.43,7.26a36,36,0,0,0,4.65,2.21c1.86.86,3.7,1.75,5.58,2.54,3.79,1.61,7.56,3.28,11.42,4.7,2.79,1,5.71,1.72,8.57,2.54a52.34,52.34,0,0,0,14.7,2.36c3.65,0,7.1-.65,10.13-2.85q2.49-1.81,5.06-3.53a25,25,0,0,1,2.43-1.3,4.14,4.14,0,0,1-.85,3.2,12.52,12.52,0,0,0-2.18,4.4,16.17,16.17,0,0,1-4.17,6.81,17.1,17.1,0,0,1-4.48,2.52c-3.93,1.72-8,1.56-12.19,1-2.87-.38-5.8-.4-8.62-1a72.15,72.15,0,0,1-8.15-2.5c-2.39-.78-4.72-1.71-7.12-2.46a69.27,69.27,0,0,1-9.4-4.1,44.76,44.76,0,0,0-6.1-2.31,16.22,16.22,0,0,1-4.78-2.29c-2-1.43-4.11-2.64-5.76-4.54a4.22,4.22,0,0,0-2.91-1.66,9.06,9.06,0,0,0-.56,4.11,65.52,65.52,0,0,0,.91,7.92,18.17,18.17,0,0,0,1.73,3.93,1.68,1.68,0,0,0,2,1,16.64,16.64,0,0,0,3.83-.94,2.45,2.45,0,0,1,2.62.06,23.58,23.58,0,0,0-1.06,2.37c-.51,1.5-2.18,1.84-3,3.06-.12.17-.66.21-.93.11a26.93,26.93,0,0,1-3.49-1.38c-1.4-.72-2.72-1.6-4.06-2.43a2.86,2.86,0,0,1-.75-.63,72.09,72.09,0,0,1-5.06-6.56,18.39,18.39,0,0,1-2.29-10c0-2.23.1-4.46.17-6.92a9.66,9.66,0,0,0-1.73.07,4.32,4.32,0,0,1-4.27-1.73,4.92,4.92,0,0,1-1.44-4.18c.11-.57.25-1.1-.35-1.63-.19-.17.2-1,.33-1.58l2.92,0-1.76,1.73.21.48a11.61,11.61,0,0,0,2.22-.26c1.65-.51,3.26-1.14,4.87-1.74a1.68,1.68,0,0,0,1.06-1.31,43.84,43.84,0,0,1,1.53-4.71c.52-1.35,1.22-2.6,1.13-4.15a6.41,6.41,0,0,1,.64-2.27q2.06-6,4.13-12c.27-.77.59-1.52,1-2.67A17.54,17.54,0,0,0,485,48.88a2.47,2.47,0,0,1-2.62.91c-1-.27-1.56.21-2,1.14a25.3,25.3,0,0,1-1.86,3c-.34.54-.72,1-1.15,1.67-2.11.31-3.32-.44-4-2.53a31.11,31.11,0,0,0-1.06-3.31c-.68-1.59-.28-2.66,1.13-3.83a3.14,3.14,0,0,0,1-1.45c.67-1.66,2.14-2.69,3.5-3.69a68.19,68.19,0,0,1,7.59-5.07c3.72-2,7.57-3.82,11.44-5.55a39.11,39.11,0,0,1,13-3.48,31.72,31.72,0,0,1,15.26,1.12c1.39.34,2.67,1.11,4,1.56a6.06,6.06,0,0,1,3.54,3.26c.12.23.14.58.32.71,2.15,1.5,3,4.06,4.69,5.89a4.18,4.18,0,0,1,.82,3.7c-.9,6.7-5.32,11.1-10.07,15.16a48,48,0,0,1-12,7.55c-1,.45-1.94,1.14-2.93,1.67-1.18.64-2.31,1.44-3.79,1a.68.68,0,0,0-.56.14c-1,1.44-2.75,1.28-4.15,1.71-1.18.37-1.71.72-1.28,2C501.87,72.27,500.29,73.69,498.3,73.47Zm-17.13,1.25-3,1.53C480.36,76.7,480.9,76.43,481.17,74.72Zm1.76,14.77a1.71,1.71,0,0,1,0-1.18c.93-2.41.44-5.08,1.44-7.5.33-.78-.17-1.21-1-1.09a6,6,0,0,0-1.05.38,31.1,31.1,0,0,0-.3,12.44C482.63,91.5,483.45,90.74,482.93,89.49ZM486,68.11c.57-.39,1.43-.65,1.65-1.18a57.75,57.75,0,0,0,1.89-5.61c.07-.24-.28-.61-.59-1.22a74.23,74.23,0,0,0-3.32,7.7Zm.41,31.47c-.12-.5-.24-1-.37-1.49l-.12,0c.05.51.1,1,.16,1.52Zm16.85-30.82a3.08,3.08,0,0,0-1.18,0c-2.13.95-4.26,1.94-6.35,3-.87.44-1.67,1-2.51,1.58l.23.4,9.91-4.35C503.33,69.19,503.29,69,503.26,68.76Zm-8.34,1.37c2.95-1.43,5.93-2.82,8.84-4.33,3.87-2,7.68-4.08,11.5-6.17.57-.31,1.46-.8,1.46-1.21,0-1.43,1.09-1.61,1.93-2.15.31-.19.48-.6.92-1.19-2.44.85-3.65,1.87-4.09,3.32-1-.5-1.76,0-2.56.66a21.13,21.13,0,0,1-3.55,2.48c-3.44,1.84-6.87,3.73-10.44,5.26-1.69.72-2.87,2.31-4.78,2.58-.11,0-.15.44-.34,1A6.52,6.52,0,0,0,494.92,70.13ZM506.6,58.48a83.73,83.73,0,0,0,17.19-11,24,24,0,0,0,3.12-3.33c.69-.87.82-2.22,2.28-2.39.16,0,.33-.38.42-.61.48-1.31.94-2.62,1.39-3.94a1.61,1.61,0,0,0-.77-2,5.8,5.8,0,0,0-1.41-.7,29.75,29.75,0,0,0-15.1-.59c-2.79.52-5.51,1.45-8.43,2.23-.07.51-.12,1.09-.23,1.66a18.14,18.14,0,0,1-.82,3.86c-1,2.21-1.5,4.64-2.94,6.65a2.88,2.88,0,0,0-.25.75c-1.27,3.62-2.55,7.24-3.81,10.86-.6,1.69-1.17,3.39-1.84,5.35,3-1.48,6-2.14,8.38-4.35l-1.26-.25C504,59.84,505.3,59.14,506.6,58.48ZM556,104.4a1.47,1.47,0,0,0-.48.57c0,.06.27.37.29.36a9.52,9.52,0,0,0,.77-.59C556.28,104.56,556.05,104.36,556,104.4Z"/><path class="cls-2" d="M580.5,74.47c3.88,1.29,7.67,2.85,11.7,3.69,2.58.54,5.1,1.33,7.67,1.92a30,30,0,0,0,3.3.36c3.88.4,7.77.75,11.64,1.25a11.11,11.11,0,0,0,4.3-.08,4.25,4.25,0,0,1,1.59,0c5.93.93,11.9.37,17.85.36a47.47,47.47,0,0,0,6.92-.71,21.67,21.67,0,0,0,3.43-1.16c1.79,2.11,2,5.19,3.08,8a3,3,0,0,0-.94.47C648.94,91,646,90.7,643.21,91c-1.46.17-3-.15-4.37.62a.73.73,0,0,1-.39,0l-11-.26-1.77,0-3.77.06c.22-.55.34-.83.52-1.27a7.92,7.92,0,0,0-5.5-.55l-.09.51c.71.12,1.41.29,2.13.36s1.4,0,2.19.07c-.07.89-.24,1.3-1.08,1.25-3.74-.22-7.5-.12-11.22-.83s-7.64-1.19-11.46-1.85c-1.86-.32-3.7-.79-5.55-1.23a2.82,2.82,0,0,1-1.44-.62c-1-1-2.16-1-3.41-1.11-1.94-.21-4-.16-5.68-1.45a4.69,4.69,0,0,0-1.68-.61A14.32,14.32,0,0,1,573.75,81a38.19,38.19,0,0,0-3.31-2.27,27.61,27.61,0,0,0-.83,7c.08,1.84-.33,3.7-.35,5.55a18.33,18.33,0,0,0,2.57,9.4c2.94-1.21,3.4-4.73,6.07-6,.21.41.48.94.82,1.63a7.29,7.29,0,0,0-1.14,6.89c-.71.75-1.31,1.42-2,2-1.5,1.44-2.24,1.49-4,.55-.65-.35-1.22-.9-2.18-.64-.44.11-1.12-.57-1.65-.93s-1.09-1.06-1.73-1.28a8,8,0,0,1-3.9-3.55,16.75,16.75,0,0,1-2.29-4.81c-.8-3-1.54-6-1.15-9.21.37-3,.21-6.07.32-9.11a53.09,53.09,0,0,1,.35-5.51c.34-2.46.92-4.88,1.32-7.34.33-2,.5-4.05.79-6.07.1-.7.36-1.37.51-2.07,1.54-7.1,3.1-14.2,4.6-21.31.36-1.67.51-3.39.82-5.07a6.57,6.57,0,0,1,.69-1.8c.34-.64,1-1.17,1.17-1.83.3-1.45,1.41-1.72,2.49-1.85a11,11,0,0,1,6.79,1.53,3.31,3.31,0,0,1,1.74,3.24,19.23,19.23,0,0,1-1.42,6.6,38.31,38.31,0,0,0-1.14,5.62,59.82,59.82,0,0,1-3.15,11,15.38,15.38,0,0,0-.67,2.89c-.44,2.1-.87,4.21-1.39,6.77l6-3.93c1.62-1.06,3.29-2,4.83-3.19q3.66-2.73,7.16-5.64c1.41-1.18,2.72-2.48,4-3.78,2.6-2.63,5.23-5.24,7.71-8A38.65,38.65,0,0,0,605.5,32a2.42,2.42,0,0,0,.47-1.47,3.06,3.06,0,0,1,.7-2.2c.9-1.42,1.79-2.86,2.75-4.25a1.85,1.85,0,0,1,2.46-.64c1.07.47,2.34.66,2.75,2a1,1,0,0,0,.39.44c2.19,1.34,2.5,3.46,2.28,5.72a6.6,6.6,0,0,1-.75,2c-.19.42-.48.8-.66,1.22a38.44,38.44,0,0,1-5.34,8.92c-2.66,3.34-5.24,6.79-8.61,9.5-.87.71-1.61,1.59-2.5,2.27-3.23,2.5-6.65,4.79-9.72,7.46-4.17,3.63-9.25,5.82-13.82,9.37A45.62,45.62,0,0,0,580.5,74.47ZM563.05,92.34c0-2.37,0-4.74.06-7.11.06-2,.2-4,.31-5.94.1-1.71.29-3.42.27-5.13,0-2.28,1.35-4.43.57-6.78,0-.14.1-.34.16-.51a12.42,12.42,0,0,0,.58-1.61c.49-2.26,1-4.53,1.38-6.81.44-2.48.8-5,1.14-7.49,0-.21-.34-.47-.65-.88-.37,1.23-.62,2.25-1,3.22-.55,1.43-.46,3-1.53,4.38-.48.6.07,1.94-.3,2.73a13.6,13.6,0,0,0-1.13,4.68c-.18,1.69-.71,3.34-.91,5-.44,3.81-.8,7.62-1.15,11.44-.14,1.5-.08,3-.22,4.51s.53,2.91.37,4.48.49,3.24.85,5.18A4,4,0,0,0,563.05,92.34Zm2.89-8.4c-.19,2.81-.33,5.62-.58,8.42a7.19,7.19,0,0,0,.77,3.2c.07-3.87.15-7.73.23-11.6Zm1.14,16c-.32,1.08-.27,1.66,1.12,1.84Zm22.63-46a1.15,1.15,0,0,1-1.57.11c-.08,0-.34.18-.48.32-.75.74-1.53,1.45-2.23,2.24-.55.64-.86,1.61-1.53,2a36,36,0,0,0-4.47,3.14,57.19,57.19,0,0,1-6.07,4.05,2.79,2.79,0,0,0-1.7,2.43c3.67-2.47,7.52-4.63,11.11-7.2a117.44,117.44,0,0,0,10.49-8.91l-2.16-.66c0,.58,0,1,0,1.45A10.94,10.94,0,0,0,589.71,53.92Zm4.43-2.7.91-.76-.24-.29-.91.71Zm38.45,38.89-1.71.18C631.51,91,632,90.91,632.59,90.11Zm9.55,0a6,6,0,0,0-4.13,0C639.26,90.82,640.33,90.83,642.14,90.15Z"/><path class="cls-2" d="M690.66,9.77c-.26,0-.54.24-.76.18-2.22-.53-4,.69-5.82,1.52a13.33,13.33,0,0,1-3.17,1,11.46,11.46,0,0,0-6.12,2.95,8.84,8.84,0,0,1-2.57,1.44,15,15,0,0,0-3.82,2.73c-2.74,2.39-5.55,4.72-8.1,7.3A44.93,44.93,0,0,0,656,32.57a7.36,7.36,0,0,0-.66,1.86,42.57,42.57,0,0,0,7.45-2c6.72-2.72,12.84-6.57,19.1-10.16,1-.55,1.9-1.31,3.12-1.06,1.51.3,3.12.52,4.15,1.85a42.41,42.41,0,0,1,2.38,3.56,1.89,1.89,0,0,1-.23,2.55,19.23,19.23,0,0,1-2.35,2.07,47.33,47.33,0,0,1-4.81,3.15c-5.42,3-9.61,7.43-14.15,11.46-2.57,2.29-5.16,4.59-7.53,7.08-1.81,1.9-3.23,4.17-4.94,6.18a24.85,24.85,0,0,0-4.07,7c-1.28,3.22-2.2,6.54-1.64,10.07a13.08,13.08,0,0,0,.88,3,2.8,2.8,0,0,0,2.86,1.72,30.67,30.67,0,0,0,12.58-2.27,112.17,112.17,0,0,0,10.43-5.3,125,125,0,0,0,17.79-12.62q5.15-4.34,10.26-8.72c.55-.47,1-1,1.78-1.86-.05.65,0,1-.1,1.16-1,1.52-1.82,3.19-3.42,4.26a8.84,8.84,0,0,0-2,1.85c-1.9,2.44-4.58,4-6.89,5.89-1.47,1.24-3,2.35-4.55,3.55a2.71,2.71,0,0,0-.81,1.33c4-2,7.1-5.21,10.79-7.66-.85,2.5-3,3.95-4.73,5.72s-3.81,3.21-5.62,5c2.57-.29,4.06-2.44,6.39-3.2-1,.86-2,1.74-3.07,2.55-1.42,1.1-3.26,1.78-3.67,3.84a23,23,0,0,1-3.49,2.21A10.43,10.43,0,0,0,683.1,79a1.35,1.35,0,0,1-.44.39A3.89,3.89,0,0,0,680.57,81c-.5.82-2,1.07-3.16,1.41-1.86.57-3.8.92-5.64,1.55A3.73,3.73,0,0,0,670,85.5a2.49,2.49,0,0,1-2.16,1.11c-1,.12-1.93.36-2.9.39-1.37,0-2.33.92-3.45,1.47a3.36,3.36,0,0,1-3.85-.46c-.88-.64-2-1-2.88-1.6a28.4,28.4,0,0,1-2.44-2c-.15-.12-.32-.4-.42-.37-1.5.37-1.69-1-2.16-1.76A13.29,13.29,0,0,0,647,78.74a6.49,6.49,0,0,1-1.56-2.89,24.76,24.76,0,0,1-1.5-10.34,3.73,3.73,0,0,1,.79-1.93,37.3,37.3,0,0,0,2.66-4.65,39.87,39.87,0,0,1,6.95-9.37c1.35-1.34,2.64-2.74,4-4.07s2.8-2.62,4.19-4c.34-.33.62-.72,1.13-1.33A5,5,0,0,0,659.85,42a3.24,3.24,0,0,1-4,.81c-2.88-1.38-3.93-2.59-5.59-6.48l-.78.57c-.55-1.62-1.18-3.17-1.6-4.78A9.89,9.89,0,0,1,649,23.94c2.52-4.09,6-7.23,9.64-10.2,2.68-2.16,5.41-4.28,8.24-6.24,3.66-2.54,7.5-4.76,12-5.51A11.06,11.06,0,0,0,681,1.42a9.78,9.78,0,0,1,9.8,1.29,9.47,9.47,0,0,1,3.75,4.64C692.75,7.53,692.39,9.6,690.66,9.77ZM652.15,55.62c2.13-2.42,4.16-4.94,6.39-7.26s4.5-4.24,6.72-6.39c.36-.35,1-.65.78-1.57a6.12,6.12,0,0,0-1.26.65c-1.33,1.18-2.61,2.4-3.9,3.61a83.24,83.24,0,0,0-9.15,9.81c-.94,1.22-2.15,2.37-2.11,4.11-1-.09-1,.51-1,1.48a9.79,9.79,0,0,0,1-1c.08-.11,0-.36,0-.54C650.43,57.57,651.3,56.6,652.15,55.62Zm50,4.11c1.4-1.4,2.43-3.19,4.47-4.33A9.07,9.07,0,0,1,702.1,59.73Z"/><path class="cls-2" d="M748,47.23c-.12,0-.32,0-.36.1-1,1.74-3,1.17-4.52,2,.16.3.21.59.39.72,3.46,2.44,6.89,4.93,10.43,7.26a35.42,35.42,0,0,0,4.65,2.21c1.86.86,3.7,1.74,5.58,2.54,3.79,1.61,7.56,3.28,11.41,4.7,2.8,1,5.72,1.71,8.58,2.54a52.26,52.26,0,0,0,14.69,2.35c3.66,0,7.1-.64,10.14-2.85,1.66-1.21,3.35-2.38,5.06-3.53.69-.46,1.47-.79,2.43-1.29a4.12,4.12,0,0,1-.85,3.19,12.43,12.43,0,0,0-2.18,4.4,16.11,16.11,0,0,1-4.17,6.81,17,17,0,0,1-4.48,2.53c-3.93,1.72-8,1.55-12.2,1-2.86-.39-5.79-.4-8.61-1a73.77,73.77,0,0,1-8.16-2.5c-2.38-.78-4.72-1.71-7.11-2.46a70,70,0,0,1-9.4-4.1,45.27,45.27,0,0,0-6.1-2.31,16.65,16.65,0,0,1-4.79-2.29c-2-1.43-4.11-2.64-5.75-4.54A4.21,4.21,0,0,0,739.74,61a8.93,8.93,0,0,0-.56,4.11,63.58,63.58,0,0,0,.91,7.92A17.7,17.7,0,0,0,741.82,77a1.68,1.68,0,0,0,2,1,16.28,16.28,0,0,0,3.83-1,2.46,2.46,0,0,1,2.61.07,25.79,25.79,0,0,0-1,2.36c-.51,1.51-2.18,1.85-3,3.06-.12.18-.66.22-.93.12a26.93,26.93,0,0,1-3.49-1.38c-1.4-.72-2.72-1.6-4.06-2.43a2.89,2.89,0,0,1-.75-.64,72,72,0,0,1-5.06-6.55,18.33,18.33,0,0,1-2.29-10c0-2.23.1-4.46.16-6.92a8.74,8.74,0,0,0-1.72.07,4.31,4.31,0,0,1-4.27-1.73,4.94,4.94,0,0,1-1.44-4.18c.11-.58.25-1.11-.35-1.63-.2-.17.2-1,.33-1.59l2.92,0-1.77,1.72c.08.16.15.32.22.49a11.61,11.61,0,0,0,2.22-.26c1.64-.52,3.25-1.14,4.87-1.75a1.64,1.64,0,0,0,1.05-1.3,43.18,43.18,0,0,1,1.54-4.71,9.93,9.93,0,0,0,1.13-4.16,6.53,6.53,0,0,1,.64-2.27q2.05-6,4.13-12c.27-.77.59-1.52,1-2.68a17.71,17.71,0,0,0-5.63,3.92,2.47,2.47,0,0,1-2.62.9c-1-.26-1.56.21-2,1.15a26.67,26.67,0,0,1-1.86,3c-.35.54-.72,1-1.15,1.66-2.11.31-3.33-.43-4-2.52a31.28,31.28,0,0,0-1.06-3.32c-.68-1.58-.28-2.66,1.13-3.82a3.14,3.14,0,0,0,1-1.45c.66-1.66,2.13-2.69,3.49-3.7a69.17,69.17,0,0,1,7.6-5.06c3.71-2,7.57-3.83,11.44-5.55a39.05,39.05,0,0,1,13-3.48,47.49,47.49,0,0,1,7.32-.4A49.33,49.33,0,0,1,775,1.57c1.39.34,2.66,1.11,4,1.56a6,6,0,0,1,3.55,3.26c.12.23.14.58.32.71,2.15,1.5,3,4.05,4.69,5.89a4.2,4.2,0,0,1,.82,3.69c-.9,6.71-5.32,11.11-10.07,15.17a48,48,0,0,1-12,7.55c-1,.44-1.94,1.14-2.94,1.67-1.17.63-2.3,1.44-3.78,1a.64.64,0,0,0-.56.14c-1,1.43-2.75,1.27-4.15,1.71-1.18.37-1.71.71-1.28,2C751.55,46,750,47.45,748,47.23Zm-17.12,1.25-3,1.52C730,50.46,730.58,50.19,730.85,48.48Zm1.76,14.77a1.71,1.71,0,0,1,0-1.18c.93-2.41.44-5.09,1.44-7.5.32-.78-.17-1.22-1-1.09a5.28,5.28,0,0,0-1,.38,31.1,31.1,0,0,0-.3,12.44C732.31,65.26,733.12,64.5,732.61,63.25Zm3.07-21.39c.57-.38,1.43-.64,1.65-1.17a55.11,55.11,0,0,0,1.88-5.61c.08-.24-.27-.61-.58-1.22a76.62,76.62,0,0,0-3.33,7.7Zm.41,31.48c-.12-.5-.25-1-.37-1.49l-.13,0c.06.51.11,1,.16,1.53Zm16.85-30.82a3.31,3.31,0,0,0-1.18,0c-2.14,1-4.26,2-6.35,3-.88.44-1.67,1-2.51,1.57l.23.41L753,43.16C753,43,753,42.73,752.94,42.52Zm-8.34,1.37c2.95-1.43,5.93-2.82,8.84-4.33,3.86-2,7.68-4.08,11.5-6.17.56-.31,1.46-.8,1.46-1.21,0-1.43,1.09-1.61,1.93-2.15.31-.19.47-.6.92-1.2-2.44.86-3.66,1.87-4.09,3.33-1-.5-1.76,0-2.56.65A20.81,20.81,0,0,1,759,35.29c-3.43,1.84-6.86,3.73-10.43,5.27-1.7.72-2.88,2.31-4.78,2.58-.11,0-.16.43-.34,1A6.52,6.52,0,0,0,744.6,43.89Zm11.67-11.65a83.53,83.53,0,0,0,17.2-11,23.37,23.37,0,0,0,3.11-3.33c.7-.87.83-2.22,2.29-2.39.16,0,.33-.38.42-.62.48-1.3.94-2.62,1.39-3.93a1.63,1.63,0,0,0-.77-2.05,6.86,6.86,0,0,0-1.41-.7,29.79,29.79,0,0,0-15.11-.58c-2.79.52-5.5,1.44-8.42,2.23-.07.51-.13,1.09-.23,1.66a18.54,18.54,0,0,1-.82,3.85c-1,2.22-1.5,4.64-2.94,6.65a2.72,2.72,0,0,0-.25.76c-1.27,3.62-2.55,7.23-3.82,10.86-.59,1.69-1.16,3.39-1.83,5.34,3-1.47,6-2.13,8.38-4.34l-1.26-.25C753.71,33.6,755,32.9,756.27,32.24Zm49.4,45.92a1.59,1.59,0,0,0-.47.56c0,.07.26.38.28.37.24-.15.46-.34.78-.59C806,78.32,805.73,78.12,805.67,78.16Z"/></g></g></g></svg>